<?xml version="1.0" encoding="UTF-8" standalone="no"?>
<!DOCTYPE svg PUBLIC "-//W3C//DTD SVG 1.1//EN" "http://www.w3.org/Graphics/SVG/1.1/DTD/svg11.dtd">
<svg xmlns="http://www.w3.org/2000/svg" xmlns:xlink="http://www.w3.org/1999/xlink" version="1.1" width="281.04pt" height="392.88pt" viewBox="0 0 281.04 392.88">
<g enable-background="new">
<clipPath id="cp0">
<path transform="matrix(.24,0,0,.24,0,0)" d="M 0 0 L 1170.8333 0 L 1170.8333 1634.8071 L 0 1634.8071 Z " fill-rule="evenodd"/>
</clipPath>
<g clip-path="url(#cp0)">
<path transform="matrix(.7473404,0,0,.7473404,0,0)" d="M 0 0 L 376 0 L 376 525 L 0 525 Z " fill="#ffffff"/>
</g>
<clipPath id="cp1">
<path transform="matrix(.24,0,0,.24,0,0)" d="M 0 0 L 1170.8333 0 L 1170.8333 1634.8071 L 0 1634.8071 Z "/>
</clipPath>
<g clip-path="url(#cp1)">
<clipPath id="cp2">
<path transform="matrix(.24,0,0,.24,0,0)" d="M 0 0 L 1170.8333 0 L 1170.8333 1634.8071 L 0 1634.8071 Z "/>
</clipPath>
<g clip-path="url(#cp2)">
<clipPath id="cp3">
<path transform="matrix(.24,0,0,.24,0,0)" d="M 712.74856 949.3714 L 1078.4959 949.3714 L 1078.4959 1090.8451 L 712.74856 1090.8451 Z "/>
</clipPath>
<g clip-path="url(#cp3)">
<clipPath id="cp4">
<path transform="matrix(.24,0,0,.24,0,0)" d="M 712.74856 1036.9503 L 712.74856 1003.2661 C 712.7485 996.11917 714.117 989.2442 716.854 982.64138 C 719.591 976.03848 723.4882 970.2102 728.54568 965.1567 C 733.60299 960.103 739.4356 956.20877 746.04348 953.4738 C 752.65127 950.7389 759.5313 949.3714 766.6836 949.3714 L 1024.5608 949.3714 C 1031.7129 949.3714 1038.5929 950.7389 1045.2008 953.4738 C 1051.8086 956.2088 1057.6411 960.1031 1062.6986 965.15676 C 1067.7559 970.21029 1071.6531 976.0385 1074.3903 982.64138 C 1077.1272 989.2442 1078.4957 996.11917 1078.4959 1003.2661 L 1078.4959 1036.9503 C 1078.4957 1044.0972 1077.1272 1050.9719 1074.3901 1057.5748 C 1071.6531 1064.1777 1067.7559 1070.006 1062.6986 1075.0597 C 1057.6411 1080.1133 1051.8085 1084.0075 1045.2007 1086.7424 C 1038.5929 1089.4774 1031.7129 1090.845 1024.5608 1090.8451 L 766.6836 1090.8451 C 759.5313 1090.845 752.65127 1089.4774 746.0434 1086.7424 C 739.43557 1084.0075 733.60299 1080.1133 728.54568 1075.0597 C 723.4882 1070.006 719.591 1064.1777 716.854 1057.5748 C 714.117 1050.9719 712.7485 1044.0972 712.74856 1036.9503 Z "/>
</clipPath>
<g clip-path="url(#cp4)">
<path transform="matrix(.40451313,0,0,.40421058,171.05965,227.84914)" stroke-width="4" stroke-linecap="butt" stroke-miterlimit="4" stroke-linejoin="miter" fill="none" stroke="#5cd430" d="M 32 0 L 185 0 C 187.10115 0 189.18212 .20495698 191.24289 .61487099 C 193.30365 1.0247849 195.30463 1.6317794 197.24584 2.4358547 C 199.18704 3.23993 201.03116 4.2256357 202.77822 5.392972 C 204.52527 6.5603086 206.14167 7.8868448 207.6274 9.372582 C 209.11313 10.858319 210.43967 12.474709 211.60701 14.22175 C 212.77434 15.968793 213.76004 17.812918 214.56412 19.754128 C 215.36821 21.695338 215.9752 23.696331 216.38512 25.757109 C 216.79503 27.817885 216.99999 29.898848 217 32 L 217 52 C 216.99999 54.101148 216.79503 56.182107 216.3851 58.242879 C 215.9752 60.303659 215.36821 62.30465 214.56412 64.24586 C 213.76004 66.18707 212.77434 68.0312 211.607 69.77824 C 210.43967 71.52528 209.11313 73.14167 207.6274 74.62741 C 206.14167 76.113147 204.52527 77.43968 202.77822 78.60702 C 201.03116 79.77435 199.18704 80.76006 197.24584 81.56413 C 195.30463 82.36821 193.30365 82.975208 191.24288 83.385128 C 189.1821 83.79504 187.10115 83.99999 185 84 L 32 84 C 29.898848 83.99999 27.817885 83.79504 25.757107 83.385128 C 23.69633 82.975208 21.695338 82.36821 19.754128 81.56413 C 17.812918 80.76006 15.968793 79.77435 14.22175 78.60702 C 12.474709 77.43968 10.858319 76.113147 9.372582 74.62741 C 7.8868448 73.14167 6.560308 71.52528 5.3929717 69.77824 C 4.2256357 68.0312 3.23993 66.18707 2.4358547 64.24586 C 1.6317794 62.30465 1.0247849 60.303659 .61487099 58.24288 C .20495698 56.182107 0 54.101148 0 52 L 0 32 C 0 29.898848 .20495698 27.817885 .61487099 25.757107 C 1.0247849 23.69633 1.6317794 21.695338 2.4358547 19.754128 C 3.23993 17.812918 4.2256357 15.968793 5.392972 14.22175 C 6.5603086 12.474709 7.8868448 10.858319 9.372582 9.372582 C 10.858319 7.8868448 12.474709 6.560308 14.22175 5.3929717 C 15.968793 4.2256357 17.812918 3.23993 19.754128 2.4358547 C 21.695338 1.6317794 23.696331 1.0247849 25.757109 .61487099 C 27.817885 .20495698 29.898848 0 32 0 Z "/>
</g>
</g>
</g>
</g>
<clipPath id="cp5">
<path transform="matrix(.24,0,0,.24,0,0)" d="M 0 0 L 1170.8333 0 L 1170.8333 1634.8071 L 0 1634.8071 Z " fill-rule="evenodd"/>
</clipPath>
<g clip-path="url(#cp5)">
<text fill="#1a1a1a" xml:space="preserve" transform="matrix(.7488508 0 0 .7473404 184.00177 236.74178)" font-size="7.57" font-family="OpenSans"><tspan y="7.572116" x="2.4008826 7.0757486 11.318577 13.231358 17.474186 21.680088 25.287785 29.530613 33.13831 35.102788 39.737035 44.304815 46.26929 50.910924 55.478704 58.14847 60.11295 64.74719 67.83423 72.07706 76.28296">Releases do not break</tspan></text>
<text fill="#1a1a1a" xml:space="preserve" transform="matrix(.7488507 0 0 .7473404 184.0014 236.74178)" font-size="7.57" font-family="OpenSans"><tspan y="18.389424" x="2.7927988 7.0356276 10.997816 12.910597 16.518294 19.188063 21.100844 25.742476 29.885603 31.85008 36.48433 40.727159 45.361406 47.274187 51.841966 55.652757 62.68721 66.93004 71.57167 74.24144 77.84914">existing deployments.</tspan></text>
<text fill="#1a1a1a" xml:space="preserve" transform="matrix(.7488507 0 0 .7473404 15.035034 317.08677)" font-size="7.57" font-family="OpenSans"><tspan y="7.572116" x="10.944074 14.913648 19.555279 24.123059 30.005414 31.96989 34.63966 39.281293 43.52412 45.488599 49.08891 53.65669 58.29832 61.906019 64.57579 67.66283 71.86873 73.78151 78.42314 81.09291 84.70061 86.665088 91.232868 93.79555 95.760028 99.96593 101.87871 103.79149 105.75597 110.39021 114.63304 119.26729 121.18007 125.74785 129.55864 136.5931 140.83592 145.47756 148.14733">know the constraints of all deployments</tspan></text>
<path transform="matrix(.40451313,0,0,.40421058,131.91457,244.82123)" stroke-width="2" stroke-linecap="round" stroke-miterlimit="4" stroke-linejoin="miter" fill="none" stroke="#5cd430" d="M 95.97347 0 C 57.904085 0 38.86939 188.77577 .8 188.77577 "/>
<text fill="#1a1a1a" xml:space="preserve" transform="matrix(.7488507 0 0 .7473404 5.359543 200.29988)" font-size="7.57" font-family="OpenSans"><tspan y="7.572116" x=".62854477 5.2627918 9.50562 13.981084 18.622715 22.865544 25.642399 29.24271 32.329748 36.572576 40.778478 43.448247 47.691076 49.655553 53.861455 58.503087 61.172857 65.74063 72.775089 76.98099 79.65076 83.893589 88.52783 90.49231 95.12656 99.76819 103.97409 105.88687 107.79965 110.46942 114.28021 116.24469 119.845 124.48663 128.72946 132.32978 136.29935">de&#xfb01;ne/create automated quality checks</tspan></text>
<path transform="matrix(.40451313,0,0,.40421058,113.36665,204.34528)" stroke-width="2" stroke-linecap="round" stroke-miterlimit="4" stroke-linejoin="miter" fill="none" stroke="#5cd430" d="M 141.82796 100.14514 C 85.41678 100.14514 57.211187 0 .8 0 "/>
<text fill="#1a1a1a" xml:space="preserve" transform="matrix(.7488507 0 0 .7473404 89.510768 243.9595)" font-size="7.57" font-family="OpenSans"><tspan y="7.572116" x="3.2166703 6.303706 10.546535 14.33517 16.247952 20.49078 26.373135 28.337613 32.89062 37.565488">review PRs</tspan></text>
<path transform="matrix(.40451313,0,0,.40421058,123.57548,244.82123)" stroke-width="2" stroke-linecap="round" stroke-miterlimit="4" stroke-linejoin="miter" fill="none" stroke="#5cd430" d="M 116.58798 0 C 70.27279 0 47.115194 7.854857 .8 7.854857 "/>
<text fill="#1a1a1a" xml:space="preserve" transform="matrix(.7488508 0 0 .7473404 20.421208 222.93683)" font-size="7.57" font-family="OpenSans"><tspan y="7.572116" x="1.7192549 5.3269517 9.56978 13.170092 17.811724 20.89876">secure</tspan></text>
<path transform="matrix(.40451313,0,0,.40421058,41.456087,226.98223)" stroke-width="2" stroke-linecap="round" stroke-miterlimit="4" stroke-linejoin="miter" fill="none" stroke="#5cd430" d="M 109.99199 52 C 66.31519 52 44.476797 0 .8 0 "/>
<text fill="#1a1a1a" xml:space="preserve" transform="matrix(.7488507 0 0 .7473404 17.339734 243.9595)" font-size="7.57" font-family="OpenSans"><tspan y="7.572116" x="1.8523585 6.420138 11.054384 15.297213 18.384249 22.59015 27.224398 29.137179">operable</tspan></text>
<path transform="matrix(.40451313,0,0,.40421058,44.4402,247.99742)" stroke-width="2" stroke-linecap="round" stroke-miterlimit="4" stroke-linejoin="miter" fill="none" stroke="#5cd430" d="M 102.61748 0 C 61.890489 0 41.526994 0 .8 0 "/>
<text fill="#1a1a1a" xml:space="preserve" transform="matrix(.7488507 0 0 .7473404 -.54610726 287.98533)" font-size="7.57" font-family="OpenSans"><tspan y="7.572116" x="5.592464 9.562038 14.2036709 18.77145 24.653805 26.618283 32.13876 34.103239 38.737485 41.82452 46.3923 49.06207 53.304899 56.90521 59.574979 61.539457 64.20923 68.85086 73.09369 75.05817 79.6998 84.26758 88.90921 91.34265 91.34265 93.905338 98.54697 103.1886 106.78891 109.45868 111.37146 115.93924 120.58087 124.78677 126.699558 128.66403 131.75107 133.66385 137.27155 141.24112 144.84882 146.8133 151.38108 153.94376 155.90824 158.578 163.21964 167.46247">know &#x0026; protect the non- functional risks of the&#x00a0;</tspan></text>
<text fill="#1a1a1a" xml:space="preserve" transform="matrix(.7488507 0 0 .7473404 -.54496458 287.98533)" font-size="7.57" font-family="OpenSans"><tspan y="18.389424" x="4.3908345 11.425289 15.993069 19.600766 22.270535 24.235013 28.869259 33.112089 40.14654 44.352445 48.994077 53.628324 55.541105 60.182737 64.32587 66.290348 70.93198 74.53967 78.7825 81.86954 85.477237 87.44171 89.67944 93.92227 95.93475 100.07788 102.09036 104.05484 108.68909 112.931919 116.01895 118.581638 120.43533 122.39981 126.00012 130.20603 134.84027 139.04618 142.64649 144.55927 147.22904 151.03983 152.89353 154.858 160.43756 165.2232">most demanding users (e.g. perf, capacity, HA)</tspan></text>
<path transform="matrix(.40451313,0,0,.40421058,128.0928,244.82123)" stroke-width="2" stroke-linecap="round" stroke-miterlimit="4" stroke-linejoin="miter" fill="none" stroke="#5cd430" d="M 105.42806 0 C 63.576837 0 42.651227 126.775768 .8 126.775768 "/>
<text fill="#1a1a1a" xml:space="preserve" transform="matrix(.7488508 0 0 .7473404 22.350876 266.96266)" font-size="7.57" font-family="OpenSans"><tspan y="7.572116" x="1.6268218 5.227133 9.794912 12.881948 15.968985 20.211813 23.812125">correct</tspan></text>
<path transform="matrix(.40451313,0,0,.40421058,44.597269,247.99742)" stroke-width="2" stroke-linecap="round" stroke-miterlimit="4" stroke-linejoin="miter" fill="none" stroke="#5cd430" d="M 102.23271 0 C 61.65963 0 41.373086 56.92091 .8 56.92091 "/>
</g>
<clipPath id="cp6">
<path transform="matrix(.24,0,0,.24,0,0)" d="M 0 0 L 1170.8333 0 L 1170.8333 1634.8071 L 0 1634.8071 Z "/>
</clipPath>
<g clip-path="url(#cp6)">
<clipPath id="cp7">
<path transform="matrix(.24,0,0,.24,0,0)" d="M 0 0 L 1170.8333 0 L 1170.8333 1634.8071 L 0 1634.8071 Z "/>
</clipPath>
<g clip-path="url(#cp7)">
<clipPath id="cp8">
<path transform="matrix(.24,0,0,.24,0,0)" d="M 13.867308 624.34066 L 391.28797 624.34066 L 391.28797 765.81436 L 13.867308 765.81436 Z "/>
</clipPath>
<g clip-path="url(#cp8)">
<clipPath id="cp9">
<path transform="matrix(.24,0,0,.24,0,0)" d="M 13.867308 711.91958 L 13.867308 678.23538 C 13.867307 671.08847 15.2358269 664.2135 17.972868 657.61068 C 20.709912 651.0078 24.607132 645.17959 29.664528 640.126 C 34.72192 635.0723 40.554517 631.17807 47.162324 628.44308 C 53.770128 625.7081 60.65015 624.34066 67.80239 624.34066 L 337.35984 624.34066 C 344.51203 624.34066 351.39204 625.7081 357.99986 628.44308 C 364.60765 631.17807 370.44026 635.0723 375.49766 640.126 C 380.55503 645.17959 384.45225 651.0078 387.1893 657.61068 C 389.92634 664.2135 391.2949 671.08847 391.29493 678.23538 L 391.29493 711.91958 C 391.2949 719.0664 389.92634 725.9412 387.1893 732.54409 C 384.45225 739.1469 380.55503 744.97518 375.49766 750.0288 C 370.44026 755.08248 364.60765 758.97677 357.99986 761.7118 C 351.39204 764.4468 344.51203 765.8143 337.35984 765.81436 L 67.80239 765.81436 C 60.65015 765.8143 53.770128 764.4468 47.162324 761.71176 C 40.554517 758.97677 34.72192 755.08248 29.664528 750.0288 C 24.607132 744.97518 20.709914 739.1469 17.97287 732.54409 C 15.2358269 725.9412 13.867307 719.0664 13.867308 711.91958 Z "/>
</clipPath>
<g clip-path="url(#cp9)">
<path transform="matrix(.40451313,0,0,.40421058,3.3281539,149.84175)" stroke-width="4" stroke-linecap="butt" stroke-miterlimit="4" stroke-linejoin="miter" fill="none" stroke="#2d9bf0" d="M 32 0 L 191.93 0 C 194.03115 0 196.11209 .20495698 198.17287 .61487099 C 200.23365 1.0247849 202.23464 1.6317794 204.17584 2.4358547 C 206.11705 3.23993 207.96117 4.2256357 209.70822 5.392972 C 211.45526 6.5603086 213.07166 7.8868448 214.55739 9.372582 C 216.04312 10.858319 217.36966 12.474709 218.537 14.22175 C 219.70432 15.968793 220.69002 17.812918 221.49411 19.754128 C 222.29819 21.695338 222.90518 23.696331 223.3151 25.757109 C 223.72502 27.817885 223.92998 29.898848 223.93 32 L 223.93 52 C 223.92998 54.101148 223.72502 56.182107 223.3151 58.242879 C 222.90518 60.303659 222.29819 62.30465 221.4941 64.24586 C 220.69002 66.18707 219.70432 68.0312 218.53699 69.77824 C 217.36965 71.52528 216.04312 73.14167 214.55739 74.62741 C 213.07166 76.113147 211.45526 77.43968 209.70822 78.60702 C 207.96117 79.77435 206.11705 80.76006 204.17584 81.56413 C 202.23464 82.36821 200.23365 82.975208 198.17287 83.385128 C 196.11209 83.79504 194.03115 83.99999 191.93 84 L 32 84 C 29.898848 83.99999 27.817885 83.79504 25.757107 83.385128 C 23.69633 82.975208 21.695338 82.36821 19.754128 81.56413 C 17.812918 80.76006 15.968793 79.77435 14.22175 78.60702 C 12.474709 77.43968 10.858319 76.113147 9.372582 74.62741 C 7.8868448 73.14167 6.560308 71.52528 5.3929717 69.77824 C 4.2256357 68.0312 3.23993 66.18707 2.4358547 64.24586 C 1.6317794 62.30465 1.0247849 60.303659 .61487099 58.24288 C .20495698 56.182107 0 54.101148 0 52 L 0 32 C 0 29.898848 .20495698 27.817885 .61487099 25.757107 C 1.0247849 23.69633 1.6317794 21.695338 2.4358547 19.754128 C 3.23993 17.812918 4.2256357 15.968793 5.392972 14.22175 C 6.5603086 12.474709 7.8868448 10.858319 9.372582 9.372582 C 10.858319 7.8868448 12.474709 6.560308 14.22175 5.3929717 C 15.968793 4.2256357 17.812918 3.23993 19.754128 2.4358547 C 21.695338 1.6317794 23.696331 1.0247849 25.757109 .61487099 C 27.817885 .20495698 29.898848 0 32 0 Z "/>
</g>
</g>
</g>
</g>
<clipPath id="cp10">
<path transform="matrix(.24,0,0,.24,0,0)" d="M 0 0 L 1170.8333 0 L 1170.8333 1634.8071 L 0 1634.8071 Z " fill-rule="evenodd"/>
</clipPath>
<g clip-path="url(#cp10)">
<text fill="#1a1a1a" xml:space="preserve" transform="matrix(.7488507 0 0 .7473404 16.272574 158.73438)" font-size="7.57" font-family="OpenSans"><tspan y="7.572116" x="0 4.1505129 8.792145 12.399841 15.069611 19.275513 21.188294 25.829926 30.035828 34.670076 36.582857 40.825685 42.79016 45.352846 49.920625 53.00766 58.890016 63.095918 66.18295 70.8172">Sustainable forward&#x00a0;</tspan></text>
<text fill="#1a1a1a" xml:space="preserve" transform="matrix(.7488507 0 0 .7473404 16.272574 158.73438)" font-size="7.57" font-family="OpenSans"><tspan y="18.389424" x="0 3.6003113 8.241943 12.447845 17.089478 21.232605 25.475434 27.43991 32.96039 34.924867 39.559114 43.80194 47.590578 51.833406 53.746187 58.313966 62.94821 69.982669 74.225498 78.86713 81.536899">change &#x0026; development.</tspan></text>
<text fill="#1a1a1a" xml:space="preserve" transform="matrix(.7488507 0 0 .7473404 127.35756 142.09699)" font-size="7.57" font-family="OpenSans"><tspan y="7.572116" x="0 7.0344545 11.240356 13.153137 17.79477 20.464539 24.67044 26.583222 31.224854 33.18933 38.70981 40.674287 44.880189 48.4805 51.15027 53.06305 57.63083 62.27246 64.23694 68.44284 73.08447 75.04895 79.29178 83.93341 88.07654 89.98932 94.63095 98.87378 103.11661 106.20364 108.116428 112.75806 116.901187 118.86566 120.77844 127.8129 132.44715 135.53418 140.10196 143.8906 148.13343 155.16788 159.4107 164.05234 166.7221 168.68659 173.32083 177.52674 181.12705 185.09662 187.0094 191.57718">maintain &#x0026; action an engineering improvement backlog</tspan></text>
<path transform="matrix(.40451313,0,0,.40421058,93.91377,146.14243)" stroke-width="2" stroke-linecap="round" stroke-miterlimit="4" stroke-linejoin="miter" fill="none" stroke="#2d9bf0" d="M .8 51.16183 C 30.035094 51.16183 44.65264 0 73.88773 0 "/>
<text fill="#1a1a1a" xml:space="preserve" transform="matrix(.7488507 0 0 .7473404 127.35756 163.11968)" font-size="7.57" font-family="OpenSans"><tspan y="7.572116" x="0 3.6003113 8.168091 12.809723 17.285187 21.919434 26.162262 30.803894 34.404207 38.647035 40.61151 43.28128 47.84906 49.813539 52.900575 57.143404 59.056184 63.29901 66.89932 69.56909 71.53357 76.08658 80.761447 84.36914 86.33362 88.8963 93.46408 96.55112 98.515598 105.55005 109.75595 111.66873 116.31036 118.98013 123.186038 125.098819 129.74045 133.94635 138.5806 140.49338 142.40616 144.31894 146.98871 150.7995 152.76398 155.85102 160.09384 164.29975 167.90744 172.47522 177.11685">con&#xfb01;dence to reject PRs for maintainability reasons</tspan></text>
<path transform="matrix(.40451313,0,0,.40421058,93.91377,166.82132)" stroke-width="2" stroke-linecap="round" stroke-miterlimit="4" stroke-linejoin="miter" fill="none" stroke="#2d9bf0" d="M .8 0 C 30.035094 0 44.65264 .83816859 73.88773 .83816859 "/>
<text fill="#1a1a1a" xml:space="preserve" transform="matrix(.7488507 0 0 .7473404 127.35756 184.1349)" font-size="7.57" font-family="OpenSans"><tspan y="7.572116" x="0 4.634247 9.202026 12.802338 17.44397 24.478425 28.721253 33.362886 36.032655 37.99713 40.6669 44.90973 48.51004 53.151674 57.793306 59.706087 63.306398 67.5123 69.42508 71.38956 74.99725 77.66702 81.872928 86.51456 91.1488 95.354709 98.44174 103.07599 106.683689 108.64816 112.854068 117.4957 122.129947 124.09442 127.69473 132.26251 136.90415 140.69278 144.93561 149.57724 152.24701 154.15979 158.72757 163.3692">document technical standards and conventions</tspan></text>
<path transform="matrix(.40451313,0,0,.40421058,93.91377,166.82132)" stroke-width="2" stroke-linecap="round" stroke-miterlimit="4" stroke-linejoin="miter" fill="none" stroke="#2d9bf0" d="M .8 0 C 30.035094 0 44.65264 52.83817 73.88773 52.83817 "/>
</g>
<clipPath id="cp11">
<path transform="matrix(.24,0,0,.24,0,0)" d="M 0 0 L 1170.8333 0 L 1170.8333 1634.8071 L 0 1634.8071 Z "/>
</clipPath>
<g clip-path="url(#cp11)">
<clipPath id="cp12">
<path transform="matrix(.24,0,0,.24,0,0)" d="M 0 0 L 1170.8333 0 L 1170.8333 1634.8071 L 0 1634.8071 Z "/>
</clipPath>
<g clip-path="url(#cp12)">
<clipPath id="cp13">
<path transform="matrix(.24,0,0,.24,0,0)" d="M 18.63517 1430.7521 L 350.67304 1430.7521 L 350.67304 1538.5415 L 18.63517 1538.5415 Z "/>
</clipPath>
<g clip-path="url(#cp13)">
<clipPath id="cp14">
<path transform="matrix(.24,0,0,.24,0,0)" d="M 18.63517 1484.6467 C 18.635169 1477.4998 20.003689 1470.6249 22.740729 1464.022 C 25.477768 1457.4191 29.374985 1451.591 34.432378 1446.5374 C 39.48977 1441.4838 45.322366 1437.5894 51.930166 1434.8544 C 58.537965 1432.1195 65.417987 1430.7521 72.57022 1430.7521 L 296.73799 1430.7521 C 303.8902 1430.7521 310.7702 1432.1196 317.37803 1434.8546 C 323.9858 1437.5896 329.81843 1441.4839 334.87583 1446.5375 C 339.9332 1451.5911 343.83039 1457.4192 346.5674 1464.022 C 349.30448 1470.6249 350.673 1477.4998 350.67304 1484.6467 C 350.673 1491.7936 349.30448 1498.6683 346.5674 1505.2711 C 343.83039 1511.874 339.9332 1517.7024 334.87583 1522.7561 C 329.81843 1527.8097 323.9858 1531.7039 317.378 1534.4389 C 310.7702 1537.1738 303.8902 1538.5414 296.73799 1538.5415 L 72.57022 1538.5415 C 65.417987 1538.5414 58.537965 1537.1738 51.930166 1534.4389 C 45.322366 1531.7039 39.48977 1527.8097 34.432378 1522.7561 C 29.374985 1517.7024 25.477768 1511.874 22.740727 1505.2711 C 20.003687 1498.6683 18.635169 1491.7936 18.63517 1484.6467 Z "/>
</clipPath>
<g clip-path="url(#cp14)">
<path transform="matrix(.40451313,0,0,.40421058,4.4724409,343.3805)" stroke-width="4" stroke-linecap="butt" stroke-miterlimit="4" stroke-linejoin="miter" fill="none" stroke="#ff45e4" d="M 32 0 L 165 0 C 167.10115 0 169.1821 .20495698 171.24288 .61487099 C 173.30365 1.0247849 175.30464 1.6317794 177.24585 2.4358547 C 179.18706 3.23993 181.03118 4.2256357 182.77823 5.392972 C 184.52529 6.5603086 186.14168 7.8868448 187.62741 9.372582 C 189.11315 10.858319 190.43968 12.474709 191.60703 14.22175 C 192.77436 15.968793 193.76006 17.812918 194.56414 19.754128 C 195.3682 21.695338 195.97519 23.696331 196.38512 25.757109 C 196.79503 27.817885 196.99999 29.898848 197 32 C 196.99999 34.10115 196.79503 36.182115 196.38512 38.24289 C 195.97519 40.303667 195.3682 42.304658 194.56414 44.24587 C 193.76006 46.187078 192.77436 48.0312 191.60701 49.778245 C 190.43967 51.525289 189.11315 53.141679 187.62741 54.627416 C 186.14168 56.11315 184.52529 57.439687 182.77823 58.60702 C 181.03118 59.774358 179.18706 60.760065 177.24585 61.564138 C 175.30464 62.36821 173.30365 62.97521 171.24288 63.385126 C 169.1821 63.795038 167.10115 63.999998 165 64 L 32 64 C 29.898848 63.999998 27.817885 63.795038 25.757107 63.38512 C 23.69633 62.975206 21.695338 62.36821 19.754128 61.564138 C 17.812918 60.760065 15.968793 59.774358 14.22175 58.60702 C 12.474709 57.439687 10.858319 56.11315 9.372582 54.627416 C 7.8868448 53.141679 6.560308 51.525289 5.3929717 49.778245 C 4.2256357 48.0312 3.23993 46.187078 2.4358547 44.24587 C 1.6317794 42.304658 1.0247849 40.303667 .61487099 38.24289 C .20495698 36.182115 0 34.10115 0 32 C 0 29.898848 .20495698 27.817885 .61487099 25.757107 C 1.0247849 23.69633 1.6317794 21.695338 2.4358547 19.754128 C 3.23993 17.812918 4.2256357 15.968793 5.392972 14.22175 C 6.5603086 12.474709 7.8868448 10.858319 9.372582 9.372582 C 10.858319 7.8868448 12.474709 6.560308 14.22175 5.3929717 C 15.968793 4.2256357 17.812918 3.23993 19.754128 2.4358547 C 21.695338 1.6317794 23.696331 1.0247849 25.757109 .61487099 C 27.817885 .20495698 29.898848 0 32 0 Z "/>
</g>
</g>
</g>
</g>
<clipPath id="cp15">
<path transform="matrix(.24,0,0,.24,0,0)" d="M 0 0 L 1170.8333 0 L 1170.8333 1634.8071 L 0 1634.8071 Z " fill-rule="evenodd"/>
</clipPath>
<g clip-path="url(#cp15)">
<text fill="#1a1a1a" xml:space="preserve" transform="matrix(.7488507 0 0 .7473404 17.41686 352.27314)" font-size="7.57" font-family="OpenSans"><tspan y="7.572116" x="0 4.770874 7.85791 12.100739 16.30664 18.97641 23.219239 25.183716 29.825348 34.068178 39.95053 41.91501 46.157838 50.120027 54.754274 58.9971 62.084138 64.75391 68.3616">Create new experts.</tspan></text>
<text fill="#1a1a1a" xml:space="preserve" transform="matrix(.7488508 0 0 .7473404 114.807788 335.62828)" font-size="7.57" font-family="OpenSans"><tspan y="7.572116" x="0 4.641632 8.88446 10.797241 15.431488 17.395966 21.963746 26.605378 31.239624 35.807405 40.013307 43.10034 47.73459 49.699068 53.90497 58.5466 63.180849 65.145328 67.815097 70.90213 75.10803 77.02081 81.662448 83.62692 88.268558 92.51138 98.39374 100.358219 103.027988 107.27081 111.476718 118.51117 122.118869 124.08334 129.60382 131.5683 133.48108 138.12271 142.75696 144.66974 148.45838 150.37116 155.0054 159.64704 163.85294 165.76572">help onboard and train new teams &#x0026; individuals</tspan></text>
<path transform="matrix(.40451313,0,0,.40421058,84.16116,339.67369)" stroke-width="2" stroke-linecap="round" stroke-miterlimit="4" stroke-linejoin="miter" fill="none" stroke="#ff45e4" d="M .8 41.16183 C 27.264742 41.16183 40.497114 0 66.96185 0 "/>
<text fill="#1a1a1a" xml:space="preserve" transform="matrix(.7488507 0 0 .7473404 114.807788 356.65095)" font-size="7.57" font-family="OpenSans"><tspan y="7.572116" x="0 4.2428286 8.88446 12.492157 17.13379 20.220826 24.463654 26.428132 31.062378 35.305208 38.905519 40.8183 44.425996 46.338777 50.906557 55.548189 57.512666 60.5997 64.84253 69.04843 72.65613 77.22391 81.86554 85.473239 87.43771 91.643619 94.73065 98.97348 100.93796 104.53827 108.74417 113.37842 116.04819 120.68982 123.776859 128.01969 132.65393 134.61841 137.18109 141.74887 144.8359 146.80039 151.36817 154.03794 158.67957 162.9224 166.00943 169.61713 171.5816 174.25138 178.81916 180.78363 182.69641 186.93924 191.14514 194.23218 198.87381 200.83829 203.40097 206.488 211.05579">ensure decision reasons are captured for others to learn from</tspan></text>
<path transform="matrix(.40451313,0,0,.40421058,84.16116,356.30949)" stroke-width="2" stroke-linecap="round" stroke-miterlimit="4" stroke-linejoin="miter" fill="none" stroke="#ff45e4" d="M .8 0 C 27.264742 0 40.497114 10.838168 66.96185 10.838168 "/>
<text fill="#1a1a1a" xml:space="preserve" transform="matrix(.7488508 0 0 .7473404 114.807788 377.66618)" font-size="7.57" font-family="OpenSans"><tspan y="7.572116" x="0 4.641632 8.249329 12.492157 14.4566349 18.056946 22.624726 25.711762 28.798798 33.041627 36.641939 39.311708 41.224489 45.792268 50.4339 54.041597 56.006074 60.211977 63.81967 65.78415 69.99005 74.63168 76.59616 81.16394 85.79819 90.432437 95.00021 98.08725 100.75702 105.39865 110.04028 111.953067 114.62283 118.433628 120.3981 123.06787 127.63565 129.60013 133.84296 138.4772 143.11884 146.71915 150.92505 153.59482 157.83765 159.80213 163.40244 167.97022 172.61185 175.28162 178.36865 180.28144 184.91568 189.55731 192.22708 196.79486 199.8819">use corrections as an opportunity to educate contributors</tspan></text>
<path transform="matrix(.40451313,0,0,.40421058,84.16116,356.30949)" stroke-width="2" stroke-linecap="round" stroke-miterlimit="4" stroke-linejoin="miter" fill="none" stroke="#ff45e4" d="M .8 0 C 27.264742 0 40.497114 62.83817 66.96185 62.83817 "/>
</g>
<clipPath id="cp16">
<path transform="matrix(.24,0,0,.24,0,0)" d="M 0 0 L 1170.8333 0 L 1170.8333 1634.8071 L 0 1634.8071 Z "/>
</clipPath>
<g clip-path="url(#cp16)">
<clipPath id="cp17">
<path transform="matrix(.24,0,0,.24,0,0)" d="M 0 0 L 1170.8333 0 L 1170.8333 1634.8071 L 0 1634.8071 Z "/>
</clipPath>
<g clip-path="url(#cp17)">
<clipPath id="cp18">
<path transform="matrix(.24,0,0,.24,0,0)" d="M 692.46176 210.96797 L 1110.4586 210.96797 L 1110.4586 386.12593 L 692.46176 386.12593 Z "/>
</clipPath>
<g clip-path="url(#cp18)">
<clipPath id="cp19">
<path transform="matrix(.24,0,0,.24,0,0)" d="M 692.46176 332.23118 L 692.46176 264.86274 C 692.4617 257.71583 693.8302 250.84093 696.5672 244.23807 C 699.3042 237.6352 703.2014 231.80696 708.25888 226.75336 C 713.3162 221.69974 719.1488 217.80544 725.75668 215.07044 C 732.36447 212.33547 739.2445 210.96797 746.3968 210.96797 L 1056.5236 210.96797 C 1063.6758 210.96797 1070.5557 212.33547 1077.1635 215.07044 C 1083.7713 217.80544 1089.6039 221.69974 1094.6613 226.75336 C 1099.7186 231.80696 1103.6159 237.6352 1106.3528 244.23807 C 1109.09 250.84093 1110.4585 257.71583 1110.4586 264.86274 L 1110.4586 332.23118 C 1110.4585 339.37806 1109.09 346.2529 1106.3528 352.85575 C 1103.6159 359.45863 1099.7186 365.28688 1094.6613 370.34049 C 1089.6039 375.3941 1083.7713 379.2884 1077.1635 382.02339 C 1070.5557 384.7584 1063.6758 386.1259 1056.5236 386.12593 L 746.3968 386.12593 C 739.2445 386.1259 732.36447 384.7584 725.75668 382.02339 C 719.1488 379.2884 713.3162 375.3941 708.25888 370.34049 C 703.2014 365.28688 699.3042 359.45863 696.5672 352.85578 C 693.8302 346.2529 692.4617 339.37806 692.46176 332.23118 Z "/>
</clipPath>
<g clip-path="url(#cp19)">
<path transform="matrix(.40451313,0,0,.40421058,166.19081,50.632314)" stroke-width="4" stroke-linecap="butt" stroke-miterlimit="4" stroke-linejoin="miter" fill="none" stroke="#ff653b" d="M 32 0 L 216 0 C 218.10115 0 220.1821 .20495698 222.24288 .61487099 C 224.30365 1.0247849 226.30464 1.6317794 228.24585 2.4358547 C 230.18706 3.23993 232.03119 4.2256357 233.77825 5.392972 C 235.52527 6.5603086 237.14167 7.8868448 238.62741 9.372582 C 240.11315 10.858319 241.43967 12.474709 242.607 14.22175 C 243.77434 15.968793 244.76004 17.812918 245.56412 19.754128 C 246.3682 21.695338 246.97519 23.696331 247.3851 25.757109 C 247.79503 27.817885 247.99999 29.898848 248 32 L 248 72 C 247.99999 74.10115 247.79503 76.18211 247.38512 78.24289 C 246.9752 80.30366 246.36821 82.30465 245.56414 84.24586 C 244.76004 86.187068 243.77434 88.03119 242.607 89.77824 C 241.43967 91.525279 240.11315 93.14166 238.62741 94.6274 C 237.14167 96.11314 235.52527 97.43967 233.77823 98.607 C 232.03119 99.77434 230.18706 100.76005 228.24585 101.564128 C 226.30464 102.3682 224.30365 102.9752 222.24288 103.38512 C 220.1821 103.79503 218.10115 103.99999 216 104 L 32 104 C 29.898848 103.99999 27.817885 103.79503 25.757107 103.38512 C 23.69633 102.975208 21.695338 102.36821 19.754128 101.56413 C 17.812918 100.760059 15.968793 99.774349 14.22175 98.60701 C 12.474709 97.439678 10.858319 96.11314 9.372582 94.6274 C 7.8868448 93.14166 6.560308 91.525279 5.3929717 89.77824 C 4.2256357 88.03119 3.23993 86.187068 2.4358547 84.24586 C 1.6317794 82.30465 1.0247849 80.30366 .61487099 78.24289 C .20495698 76.18211 0 74.10115 0 72 L 0 32 C 0 29.898848 .20495698 27.817885 .61487099 25.757107 C 1.0247849 23.69633 1.6317794 21.695338 2.4358547 19.754128 C 3.23993 17.812918 4.2256357 15.968793 5.392972 14.22175 C 6.5603086 12.474709 7.8868448 10.858319 9.372582 9.372582 C 10.858319 7.8868448 12.474709 6.560308 14.22175 5.3929717 C 15.968793 4.2256357 17.812918 3.23993 19.754128 2.4358547 C 21.695338 1.6317794 23.696331 1.0247849 25.757109 .61487099 C 27.817885 .20495698 29.898848 0 32 0 Z "/>
</g>
</g>
</g>
</g>
<clipPath id="cp20">
<path transform="matrix(.24,0,0,.24,0,0)" d="M 0 0 L 1170.8333 0 L 1170.8333 1634.8071 L 0 1634.8071 Z " fill-rule="evenodd"/>
</clipPath>
<g clip-path="url(#cp20)">
<text fill="#1a1a1a" xml:space="preserve" transform="matrix(.7488507 0 0 .7473404 179.13523 59.524946)" font-size="7.57" font-family="OpenSans"><tspan y="7.572116" x="0 4.205902 8.847534 12.447845 17.015625 21.657258 24.744294 28.950196 33.093324 37.33615 39.30063 42.90094 47.46872 52.11035 54.78012 57.867158 59.779939 64.414188 69.05582 71.725589 73.63837 78.20615 82.84778 86.455478">Encourage contributions&#x00a0;</tspan></text>
<text fill="#1a1a1a" xml:space="preserve" transform="matrix(.7488507 0 0 .7473404 179.13523 59.524946)" font-size="7.57" font-family="OpenSans"><tspan y="18.389424" x="0 4.205902 8.847534 13.481781 15.446259 20.08789 24.330719 26.2435 30.877747 32.842226 36.98535 41.22818 43.89795 45.862428 48.532197 53.17383 57.416658 64.45111 66.41559 73.45004 77.69287 80.77991 84.923038 89.16586 93.80011">and help get them merged&#x00a0;</tspan></text>
<text fill="#1a1a1a" xml:space="preserve" transform="matrix(.7488508 0 0 .7473404 179.13523 59.524946)" font-size="7.57" font-family="OpenSans"><tspan y="29.206734" x="0 4.205902 8.847534 13.481781 15.446259 18.533295 22.776124 24.688904 28.931733 33.137636 36.74533 40.98816 45.622407 47.586885 52.22113 56.862764 58.775545 62.375856 66.34543 68.25821 72.069">and released quickly.</tspan></text>
<text fill="#1a1a1a" xml:space="preserve" transform="matrix(.7488507 0 0 .7473404 5.337703 114.40803)" font-size="7.57" font-family="OpenSans"><tspan y="7.572116" x="0 4.2428286 8.88446 13.090363 17.72461 19.63739 23.880219 25.844696 30.050599 34.69223 39.326478 41.290956 45.533784 50.175416 53.775728 58.343507 62.985139 66.072177 70.278079 74.4212 78.66403 80.62851 83.715549 87.958377 92.1015 96.74313 98.655918 102.86182 105.94885 107.91333 111.00037 115.243198 117.155979 121.3988 125.604709 129.2124 133.45523">enable and encourage regular releases</tspan></text>
<text fill="#1a1a1a" xml:space="preserve" transform="matrix(.7488507 0 0 .7473404 5.337703 114.40803)" font-size="7.57" font-family="OpenSans"><tspan y="18.389424" x="0 3.6076966 8.175476 10.139954 13.740265 18.308045 22.949677 25.619446 28.706482 30.619263 35.25351 39.89514 42.56491 44.47769 49.04547 53.687105 57.2948 59.259279 62.85959 67.06549 71.70712 73.6716 77.81473 82.057559 84.727329 86.6918 91.32605 95.56888 100.203128 102.115909 106.683689 110.49448 114.737308 119.37155 121.33603 125.970279 130.61191 132.52469 136.125 140.09458 142.00736">so contributions can get deployed quickly</tspan></text>
<path transform="matrix(.40451313,0,0,.40421058,121.436489,71.64752)" stroke-width="2" stroke-linecap="round" stroke-miterlimit="4" stroke-linejoin="miter" fill="none" stroke="#ff653b" d="M 109.85151 0 C 66.2309 0 44.420606 125.775768 .8 125.775768 "/>
<text fill="#1a1a1a" xml:space="preserve" transform="matrix(.7488508 0 0 .7473404 14.364854 4.862887)" font-size="7.57" font-family="OpenSans"><tspan y="7.572116" x="0 4.205902 8.840149 12.628784 14.541565 18.149262 22.39209 24.356568 27.956879 32.52466 37.16629 39.83606 42.923097 44.835878 49.470125 54.111757 56.781526 61.349306 64.43634 68.04404 70.008518 74.64276 78.88559 81.44827 86.01605 89.10309">advise contributors before</tspan></text>
<text fill="#1a1a1a" xml:space="preserve" transform="matrix(.7488507 0 0 .7473404 14.364854 4.862887)" font-size="7.57" font-family="OpenSans"><tspan y="18.389424" x="0 4.205902 8.847534 13.481781 15.446259 20.080506 24.722138 27.809174 29.721955 34.363588 38.506715 40.47119 45.10544 49.348268 53.1369 57.37973 59.29251 63.86029 68.49454 75.52899 79.77182 84.41345 87.08322">and during development.</tspan></text>
<path transform="matrix(.40451313,0,0,.40421058,91.22134,12.951408)" stroke-width="2" stroke-linecap="round" stroke-miterlimit="4" stroke-linejoin="miter" fill="none" stroke="#ff653b" d="M 184.53925 145.22423 C 111.04355 145.22423 74.2957 0 .8 0 "/>
<text fill="#1a1a1a" xml:space="preserve" transform="matrix(.7488507 0 0 .7473404 25.082257 33.96432)" font-size="7.57" font-family="OpenSans"><tspan y="7.572116" x="0 3.0870362 7.3298647 11.1185 13.0312809 17.274109 23.156464 25.120942 29.67395 34.348817 37.956514 39.92099 44.555238 49.19687 51.10965 54.70996 58.679536 60.592317">review PRs quickly</tspan></text>
<text fill="#1a1a1a" xml:space="preserve" transform="matrix(.7488507 0 0 .7473404 25.082257 33.96432)" font-size="7.57" font-family="OpenSans"><tspan y="18.389424" x="0 4.205902 8.847534 13.481781 15.446259 19.04657 23.61435 28.255982 31.863678 34.533449 37.620485 42.262117 45.862428 48.532197 50.444978 54.233613 58.47644 60.38922">and constructively</tspan></text>
<path transform="matrix(.40451313,0,0,.40421058,80.09258,42.052846)" stroke-width="2" stroke-linecap="round" stroke-miterlimit="4" stroke-linejoin="miter" fill="none" stroke="#ff653b" d="M 212.04251 73.224239 C 127.54551 73.224239 85.297008 0 .8 0 "/>
<text fill="#1a1a1a" xml:space="preserve" transform="matrix(.7488507 0 0 .7473404 6.130477 84.08844)" font-size="7.57" font-family="OpenSans"><tspan y="7.572116" x="0 4.2428286 8.88446 12.492157 17.13379 20.220826 24.463654 26.428132 30.634034 34.234346 37.834657 42.476289 45.563325 49.769227 52.438997 56.681825 58.535524 60.5 65.14163 68.74933 72.99216 75.55484 80.19647 82.10925 84.07373 88.27963 92.921268 97.55551 99.51999 103.1203 107.68808 112.32971 115.93002 117.842807 121.4505">ensure accurate, useful and concise</tspan></text>
<text fill="#1a1a1a" xml:space="preserve" transform="matrix(.7488508 0 0 .7473404 6.130477 84.08844)" font-size="7.57" font-family="OpenSans"><tspan y="18.389424" x="0 5.8823549 8.969391 10.882172 13.551941 16.22171 20.464539 25.10617 27.070649 31.704895 36.272676 39.872987 44.514619 51.549074 55.7919 60.433534 63.103303 67.309207 69.97897 71.891757 76.45953 81.101169 83.06564 87.30847 91.27066 93.18344 96.79114 99.46091">written documentation exists</tspan></text>
<path transform="matrix(.40451313,0,0,.40421058,108.87925,71.64752)" stroke-width="2" stroke-linecap="round" stroke-miterlimit="4" stroke-linejoin="miter" fill="none" stroke="#ff653b" d="M 140.88584 0 C 84.8515 0 56.834337 50.77577 .8 50.77577 "/>
<text fill="#1a1a1a" xml:space="preserve" transform="matrix(.7488508 0 0 .7473404 8.157287 63.073236)" font-size="7.57" font-family="OpenSans"><tspan y="7.572116" x="0 1.9127808 6.5470278 10.789856 15.431488 18.101258 20.014039 22.576722 26.387513 28.35199 33.872468 35.836946 40.042848 41.955629 43.86841 48.011537 52.653169 54.617647 58.217958 62.785737 67.42737 71.90283 73.81561 77.415927 80.08569 81.998477 86.64011 90.78323 92.74771 98.630069 103.197849 106.28488 110.254459 112.21893 116.46176 120.66766 123.7547 125.66748">identify &#x0026; align con&#xfb02;icting work early</tspan></text>
<path transform="matrix(.40451313,0,0,.40421058,108.87925,67.11117)" stroke-width="2" stroke-linecap="round" stroke-miterlimit="4" stroke-linejoin="miter" fill="none" stroke="#ff653b" d="M 140.88584 11.224234 C 84.8515 11.224234 56.834337 0 .8 0 "/>
</g>
</g>
</svg>
